<?xml version="1.0" standalone="no"?>
<!DOCTYPE svg PUBLIC "-//W3C//DTD SVG 20010904//EN"
 "http://www.w3.org/TR/2001/REC-SVG-20010904/DTD/svg10.dtd">
<svg version="1.0" xmlns="http://www.w3.org/2000/svg"
 width="150.000000pt" height="150.000000pt" viewBox="0 0 150.000000 150.000000"
 preserveAspectRatio="xMidYMid meet">
<metadata>
Created by potrace 1.11, written by Peter Selinger 2001-2013
</metadata>
<g transform="translate(0.000000,150.000000) scale(0.100000,-0.100000)"
fill="#000000" stroke="none">
<path d="M495 1203 c-186 -67 -304 -222 -309 -408 -2 -38 4 -95 12 -125 15
-62 68 -160 85 -160 6 0 21 10 33 21 l23 22 -23 41 c-109 191 -38 419 162 517
39 20 63 24 142 24 88 0 101 -3 162 -33 76 -37 136 -98 169 -173 21 -47 24
-49 62 -49 36 0 39 2 33 23 -27 108 -121 218 -232 274 -67 33 -84 37 -172 40
-75 3 -108 0 -147 -14z"/>
<path d="M1028 795 c-2 -1 -25 -5 -53 -9 -186 -23 -390 -98 -544 -200 -89 -60
-185 -149 -268 -249 -68 -83 -67 -84 22 -11 28 23 74 57 103 77 l54 35 46 -29
c143 -89 320 -91 465 -6 81 48 164 153 191 245 7 20 4 22 -32 22 -38 0 -42 -3
-62 -44 -34 -72 -94 -132 -168 -168 -62 -31 -74 -33 -162 -32 -83 0 -102 4
-149 28 -63 33 -66 29 85 104 156 78 377 154 514 177 19 3 53 10 75 15 37 8
128 17 217 22 23 1 34 6 29 11 -8 8 -355 20 -363 12z"/>
<path d="M1155 646 c-104 -63 -92 -218 19 -266 104 -46 216 33 211 148 -5 111
-133 176 -230 118z"/>
</g>
</svg>
